G04 PROTEUS GERBER X2 FILE*
%TF.GenerationSoftware,Labcenter,Proteus,8.8-SP1-Build27031*%
%TF.CreationDate,2019-02-23T23:09:11+00:00*%
%TF.FileFunction,Legend,Top*%
%TF.FilePolarity,Positive*%
%TF.Part,Single*%
%TF.SameCoordinates,{4f05214c-f268-41af-9fbd-0331bb8a8b34}*%
%FSLAX45Y45*%
%MOMM*%
G01*
%TA.AperFunction,Profile*%
%ADD17C,0.203200*%
%TA.AperFunction,Material*%
%ADD70C,0.203200*%
%TD.AperFunction*%
D17*
X-1220000Y-740000D02*
X+3280000Y-740000D01*
X+3280000Y+2260000D01*
X-1220000Y+2260000D01*
X-1220000Y-740000D01*
D70*
X-197000Y-247000D02*
X+184000Y-247000D01*
X-247800Y-120000D02*
X-245617Y-143688D01*
X-239862Y-166633D01*
X-222400Y-207312D01*
X-197000Y-247000D01*
X-247800Y-120000D02*
X-246938Y-68065D01*
X-235547Y-20037D01*
X-214705Y+23154D01*
X-185491Y+60578D01*
X-148984Y+91305D01*
X-106264Y+114404D01*
X-58410Y+128946D01*
X-6500Y+134000D01*
X+234800Y-120000D02*
X+232617Y-143688D01*
X+226862Y-166633D01*
X+209400Y-207312D01*
X+184000Y-247000D01*
X+234800Y-120000D02*
X+233938Y-68065D01*
X+222547Y-20037D01*
X+201705Y+23154D01*
X+172491Y+60578D01*
X+135984Y+91305D01*
X+93264Y+114404D01*
X+45410Y+128946D01*
X-6500Y+134000D01*
X-133500Y-334400D02*
X-101750Y-303920D01*
X-70000Y-303920D01*
X-38250Y-334400D01*
X-38250Y-364880D01*
X-70000Y-395360D01*
X-101750Y-395360D01*
X-133500Y-364880D01*
X-133500Y-334400D01*
X-70000Y-364880D02*
X-38250Y-395360D01*
X+25250Y-334400D02*
X+57000Y-303920D01*
X+57000Y-395360D01*
X+1137000Y-214000D02*
X+1137000Y+167000D01*
X+1010000Y-264800D02*
X+1033688Y-262617D01*
X+1056633Y-256862D01*
X+1097312Y-239400D01*
X+1137000Y-214000D01*
X+1010000Y-264800D02*
X+958065Y-263938D01*
X+910037Y-252546D01*
X+866846Y-231704D01*
X+829422Y-202491D01*
X+798695Y-165984D01*
X+775596Y-123264D01*
X+761054Y-75410D01*
X+756000Y-23500D01*
X+1010000Y+217800D02*
X+1033688Y+215617D01*
X+1056633Y+209862D01*
X+1097312Y+192400D01*
X+1137000Y+167000D01*
X+1010000Y+217800D02*
X+958065Y+216938D01*
X+910037Y+205546D01*
X+866846Y+184704D01*
X+829422Y+155491D01*
X+798695Y+118984D01*
X+775596Y+76264D01*
X+761054Y+28410D01*
X+756000Y-23500D01*
X+1234400Y-150500D02*
X+1203920Y-118750D01*
X+1203920Y-87000D01*
X+1234400Y-55250D01*
X+1264880Y-55250D01*
X+1295360Y-87000D01*
X+1295360Y-118750D01*
X+1264880Y-150500D01*
X+1234400Y-150500D01*
X+1264880Y-87000D02*
X+1295360Y-55250D01*
X+1219160Y-7625D02*
X+1203920Y+8250D01*
X+1203920Y+55875D01*
X+1219160Y+71750D01*
X+1234400Y+71750D01*
X+1249640Y+55875D01*
X+1249640Y+8250D01*
X+1264880Y-7625D01*
X+1295360Y-7625D01*
X+1295360Y+71750D01*
X-790000Y+1164000D02*
X-790000Y+1291000D01*
X-853500Y+1291000D02*
X-726500Y+1291000D01*
X-726500Y+1799000D01*
X-853500Y+1799000D01*
X-853500Y+1291000D01*
X-790000Y+1799000D02*
X-790000Y+1926000D01*
X-894140Y+1418000D02*
X-985580Y+1418000D01*
X-985580Y+1497375D01*
X-970340Y+1513250D01*
X-955100Y+1513250D01*
X-939860Y+1497375D01*
X-939860Y+1418000D01*
X-939860Y+1497375D02*
X-924620Y+1513250D01*
X-894140Y+1513250D01*
X-955100Y+1576750D02*
X-985580Y+1608500D01*
X-894140Y+1608500D01*
X+1400000Y+1174000D02*
X+1400000Y+1301000D01*
X+1336500Y+1301000D02*
X+1463500Y+1301000D01*
X+1463500Y+1809000D01*
X+1336500Y+1809000D01*
X+1336500Y+1301000D01*
X+1400000Y+1809000D02*
X+1400000Y+1936000D01*
X+1295860Y+1428000D02*
X+1204420Y+1428000D01*
X+1204420Y+1507375D01*
X+1219660Y+1523250D01*
X+1234900Y+1523250D01*
X+1250140Y+1507375D01*
X+1250140Y+1428000D01*
X+1250140Y+1507375D02*
X+1265380Y+1523250D01*
X+1295860Y+1523250D01*
X+1219660Y+1570875D02*
X+1204420Y+1586750D01*
X+1204420Y+1634375D01*
X+1219660Y+1650250D01*
X+1234900Y+1650250D01*
X+1250140Y+1634375D01*
X+1250140Y+1586750D01*
X+1265380Y+1570875D01*
X+1295860Y+1570875D01*
X+1295860Y+1650250D01*
X+890000Y+1174000D02*
X+890000Y+1301000D01*
X+826500Y+1301000D02*
X+953500Y+1301000D01*
X+953500Y+1809000D01*
X+826500Y+1809000D01*
X+826500Y+1301000D01*
X+890000Y+1809000D02*
X+890000Y+1936000D01*
X+785860Y+1428000D02*
X+694420Y+1428000D01*
X+694420Y+1507375D01*
X+709660Y+1523250D01*
X+724900Y+1523250D01*
X+740140Y+1507375D01*
X+740140Y+1428000D01*
X+740140Y+1507375D02*
X+755380Y+1523250D01*
X+785860Y+1523250D01*
X+709660Y+1570875D02*
X+694420Y+1586750D01*
X+694420Y+1634375D01*
X+709660Y+1650250D01*
X+724900Y+1650250D01*
X+740140Y+1634375D01*
X+755380Y+1650250D01*
X+770620Y+1650250D01*
X+785860Y+1634375D01*
X+785860Y+1586750D01*
X+770620Y+1570875D01*
X+740140Y+1602625D02*
X+740140Y+1634375D01*
X-10000Y+1174000D02*
X-10000Y+1301000D01*
X-73500Y+1301000D02*
X+53500Y+1301000D01*
X+53500Y+1809000D01*
X-73500Y+1809000D01*
X-73500Y+1301000D01*
X-10000Y+1809000D02*
X-10000Y+1936000D01*
X-114140Y+1428000D02*
X-205580Y+1428000D01*
X-205580Y+1507375D01*
X-190340Y+1523250D01*
X-175100Y+1523250D01*
X-159860Y+1507375D01*
X-159860Y+1428000D01*
X-159860Y+1507375D02*
X-144620Y+1523250D01*
X-114140Y+1523250D01*
X-144620Y+1650250D02*
X-144620Y+1555000D01*
X-205580Y+1618500D01*
X-114140Y+1618500D01*
X-413000Y+580000D02*
X-413827Y+600483D01*
X-420545Y+641450D01*
X-434563Y+682417D01*
X-457341Y+723384D01*
X-492141Y+764229D01*
X-533108Y+795845D01*
X-574075Y+816392D01*
X-615042Y+828629D01*
X-656009Y+833762D01*
X-667000Y+834000D01*
X-921000Y+580000D02*
X-920173Y+600483D01*
X-913455Y+641450D01*
X-899437Y+682417D01*
X-876659Y+723384D01*
X-841859Y+764229D01*
X-800892Y+795845D01*
X-759925Y+816392D01*
X-718958Y+828629D01*
X-677991Y+833762D01*
X-667000Y+834000D01*
X-921000Y+580000D02*
X-920173Y+559517D01*
X-913455Y+518550D01*
X-899437Y+477583D01*
X-876659Y+436616D01*
X-841859Y+395771D01*
X-800892Y+364155D01*
X-759925Y+343608D01*
X-718958Y+331371D01*
X-677991Y+326238D01*
X-667000Y+326000D01*
X-413000Y+580000D02*
X-413827Y+559517D01*
X-420545Y+518550D01*
X-434563Y+477583D01*
X-457341Y+436616D01*
X-492141Y+395771D01*
X-533108Y+364155D01*
X-574075Y+343608D01*
X-615042Y+331371D01*
X-656009Y+326238D01*
X-667000Y+326000D01*
X-984500Y+834000D02*
X-857500Y+834000D01*
X-921000Y+897500D02*
X-921000Y+770500D01*
X-715750Y+178140D02*
X-715750Y+269580D01*
X-652250Y+269580D01*
X-620500Y+239100D01*
X-620500Y+208620D01*
X-652250Y+178140D01*
X-715750Y+178140D01*
X-557000Y+239100D02*
X-525250Y+269580D01*
X-525250Y+178140D01*
X+1651000Y+590000D02*
X+1650173Y+610483D01*
X+1643455Y+651450D01*
X+1629437Y+692417D01*
X+1606659Y+733384D01*
X+1571859Y+774229D01*
X+1530892Y+805845D01*
X+1489925Y+826392D01*
X+1448958Y+838629D01*
X+1407991Y+843762D01*
X+1397000Y+844000D01*
X+1143000Y+590000D02*
X+1143827Y+610483D01*
X+1150545Y+651450D01*
X+1164563Y+692417D01*
X+1187341Y+733384D01*
X+1222141Y+774229D01*
X+1263108Y+805845D01*
X+1304075Y+826392D01*
X+1345042Y+838629D01*
X+1386009Y+843762D01*
X+1397000Y+844000D01*
X+1143000Y+590000D02*
X+1143827Y+569517D01*
X+1150545Y+528550D01*
X+1164563Y+487583D01*
X+1187341Y+446616D01*
X+1222141Y+405771D01*
X+1263108Y+374155D01*
X+1304075Y+353608D01*
X+1345042Y+341371D01*
X+1386009Y+336238D01*
X+1397000Y+336000D01*
X+1651000Y+590000D02*
X+1650173Y+569517D01*
X+1643455Y+528550D01*
X+1629437Y+487583D01*
X+1606659Y+446616D01*
X+1571859Y+405771D01*
X+1530892Y+374155D01*
X+1489925Y+353608D01*
X+1448958Y+341371D01*
X+1407991Y+336238D01*
X+1397000Y+336000D01*
X+1079500Y+844000D02*
X+1206500Y+844000D01*
X+1143000Y+907500D02*
X+1143000Y+780500D01*
X+1318250Y+178140D02*
X+1318250Y+269580D01*
X+1381750Y+269580D01*
X+1413500Y+239100D01*
X+1413500Y+208620D01*
X+1381750Y+178140D01*
X+1318250Y+178140D01*
X+1461125Y+254340D02*
X+1477000Y+269580D01*
X+1524625Y+269580D01*
X+1540500Y+254340D01*
X+1540500Y+239100D01*
X+1524625Y+223860D01*
X+1477000Y+223860D01*
X+1461125Y+208620D01*
X+1461125Y+178140D01*
X+1540500Y+178140D01*
X+1031000Y+621750D02*
X+1030173Y+642233D01*
X+1023455Y+683200D01*
X+1009437Y+724167D01*
X+986659Y+765134D01*
X+951859Y+805979D01*
X+910892Y+837595D01*
X+869925Y+858142D01*
X+828958Y+870379D01*
X+787991Y+875512D01*
X+777000Y+875750D01*
X+523000Y+621750D02*
X+523827Y+642233D01*
X+530545Y+683200D01*
X+544563Y+724167D01*
X+567341Y+765134D01*
X+602141Y+805979D01*
X+643108Y+837595D01*
X+684075Y+858142D01*
X+725042Y+870379D01*
X+766009Y+875512D01*
X+777000Y+875750D01*
X+523000Y+621750D02*
X+523827Y+601267D01*
X+530545Y+560300D01*
X+544563Y+519333D01*
X+567341Y+478366D01*
X+602141Y+437521D01*
X+643108Y+405905D01*
X+684075Y+385358D01*
X+725042Y+373121D01*
X+766009Y+367988D01*
X+777000Y+367750D01*
X+1031000Y+621750D02*
X+1030173Y+601267D01*
X+1023455Y+560300D01*
X+1009437Y+519333D01*
X+986659Y+478366D01*
X+951859Y+437521D01*
X+910892Y+405905D01*
X+869925Y+385358D01*
X+828958Y+373121D01*
X+787991Y+367988D01*
X+777000Y+367750D01*
X+586500Y+748750D02*
X+713500Y+748750D01*
X+650000Y+812250D02*
X+650000Y+685250D01*
X+645250Y+931630D02*
X+629375Y+916390D01*
X+581750Y+916390D01*
X+550000Y+946870D01*
X+550000Y+977350D01*
X+581750Y+1007830D01*
X+629375Y+1007830D01*
X+645250Y+992590D01*
X+708750Y+977350D02*
X+740500Y+1007830D01*
X+740500Y+916390D01*
X+381000Y+621750D02*
X+380173Y+642233D01*
X+373455Y+683200D01*
X+359437Y+724167D01*
X+336659Y+765134D01*
X+301859Y+805979D01*
X+260892Y+837595D01*
X+219925Y+858142D01*
X+178958Y+870379D01*
X+137991Y+875512D01*
X+127000Y+875750D01*
X-127000Y+621750D02*
X-126173Y+642233D01*
X-119455Y+683200D01*
X-105437Y+724167D01*
X-82659Y+765134D01*
X-47859Y+805979D01*
X-6892Y+837595D01*
X+34075Y+858142D01*
X+75042Y+870379D01*
X+116009Y+875512D01*
X+127000Y+875750D01*
X-127000Y+621750D02*
X-126173Y+601267D01*
X-119455Y+560300D01*
X-105437Y+519333D01*
X-82659Y+478366D01*
X-47859Y+437521D01*
X-6892Y+405905D01*
X+34075Y+385358D01*
X+75042Y+373121D01*
X+116009Y+367988D01*
X+127000Y+367750D01*
X+381000Y+621750D02*
X+380173Y+601267D01*
X+373455Y+560300D01*
X+359437Y+519333D01*
X+336659Y+478366D01*
X+301859Y+437521D01*
X+260892Y+405905D01*
X+219925Y+385358D01*
X+178958Y+373121D01*
X+137991Y+367988D01*
X+127000Y+367750D01*
X-63500Y+748750D02*
X+63500Y+748750D01*
X+0Y+812250D02*
X+0Y+685250D01*
X+219250Y+931630D02*
X+203375Y+916390D01*
X+155750Y+916390D01*
X+124000Y+946870D01*
X+124000Y+977350D01*
X+155750Y+1007830D01*
X+203375Y+1007830D01*
X+219250Y+992590D01*
X+266875Y+992590D02*
X+282750Y+1007830D01*
X+330375Y+1007830D01*
X+346250Y+992590D01*
X+346250Y+977350D01*
X+330375Y+962110D01*
X+282750Y+962110D01*
X+266875Y+946870D01*
X+266875Y+916390D01*
X+346250Y+916390D01*
X+2060000Y-720000D02*
X+3060000Y-720000D01*
X+3060000Y+780000D01*
X+2060000Y+780000D01*
X+2060000Y-720000D01*
X+2539500Y+844280D02*
X+2539500Y+935720D01*
X+2603000Y+935720D01*
X+2634750Y+905240D01*
X+2634750Y+874760D01*
X+2603000Y+844280D01*
X+2539500Y+844280D01*
X+2761750Y+859520D02*
X+2745875Y+844280D01*
X+2698250Y+844280D01*
X+2666500Y+874760D01*
X+2666500Y+905240D01*
X+2698250Y+935720D01*
X+2745875Y+935720D01*
X+2761750Y+920480D01*
X+2825250Y+905240D02*
X+2857000Y+935720D01*
X+2857000Y+844280D01*
M02*
