G04 PROTEUS GERBER X2 FILE*
%TF.GenerationSoftware,Labcenter,Proteus,8.8-SP1-Build27031*%
%TF.CreationDate,2019-02-23T23:09:11+00:00*%
%TF.FileFunction,AssemblyDrawing,Top*%
%TF.FilePolarity,Positive*%
%TF.Part,Single*%
%TF.SameCoordinates,{4f05214c-f268-41af-9fbd-0331bb8a8b34}*%
%FSLAX45Y45*%
%MOMM*%
G01*
%TA.AperFunction,Profile*%
%ADD17C,0.203200*%
%TA.AperFunction,Material*%
%ADD70C,0.203200*%
%ADD26C,0.176100*%
%ADD27C,0.106680*%
%ADD28C,0.197270*%
%ADD29C,0.380080*%
%TD.AperFunction*%
D17*
X-1220000Y-740000D02*
X+3280000Y-740000D01*
X+3280000Y+2260000D01*
X-1220000Y+2260000D01*
X-1220000Y-740000D01*
D70*
X-270660Y-257160D02*
X+257660Y-257160D01*
X+257660Y+144160D01*
X-270660Y+144160D01*
X-270660Y-257160D01*
D26*
X-147384Y-38890D02*
X-112163Y-3669D01*
X-76942Y-3669D01*
X-41721Y-38890D01*
X-41721Y-74111D01*
X-76942Y-109332D01*
X-112163Y-109332D01*
X-147384Y-74111D01*
X-147384Y-38890D01*
X-76942Y-74111D02*
X-41721Y-109332D01*
X+28721Y-38890D02*
X+63942Y-3669D01*
X+63942Y-109332D01*
D70*
X+745840Y-287660D02*
X+1147160Y-287660D01*
X+1147160Y+240660D01*
X+745840Y+240660D01*
X+745840Y-287660D01*
D26*
X+928890Y-164384D02*
X+893669Y-129163D01*
X+893669Y-93942D01*
X+928890Y-58721D01*
X+964111Y-58721D01*
X+999332Y-93942D01*
X+999332Y-129163D01*
X+964111Y-164384D01*
X+928890Y-164384D01*
X+964111Y-93942D02*
X+999332Y-58721D01*
X+911279Y-5890D02*
X+893669Y+11721D01*
X+893669Y+64552D01*
X+911279Y+82163D01*
X+928890Y+82163D01*
X+946500Y+64552D01*
X+946500Y+11721D01*
X+964111Y-5890D01*
X+999332Y-5890D01*
X+999332Y+82163D01*
D70*
X-878900Y+948100D02*
X-701100Y+948100D01*
X-701100Y+2141900D01*
X-878900Y+2141900D01*
X-878900Y+948100D01*
D27*
X-757996Y+1459656D02*
X-822004Y+1459656D01*
X-822004Y+1512996D01*
X-811336Y+1523664D01*
X-800668Y+1523664D01*
X-790000Y+1512996D01*
X-790000Y+1459656D01*
X-790000Y+1512996D02*
X-779332Y+1523664D01*
X-757996Y+1523664D01*
X-800668Y+1566336D02*
X-822004Y+1587672D01*
X-757996Y+1587672D01*
D70*
X+1311100Y+958100D02*
X+1488900Y+958100D01*
X+1488900Y+2151900D01*
X+1311100Y+2151900D01*
X+1311100Y+958100D01*
D27*
X+1432004Y+1469656D02*
X+1367996Y+1469656D01*
X+1367996Y+1522996D01*
X+1378664Y+1533664D01*
X+1389332Y+1533664D01*
X+1400000Y+1522996D01*
X+1400000Y+1469656D01*
X+1400000Y+1522996D02*
X+1410668Y+1533664D01*
X+1432004Y+1533664D01*
X+1378664Y+1565668D02*
X+1367996Y+1576336D01*
X+1367996Y+1608340D01*
X+1378664Y+1619008D01*
X+1389332Y+1619008D01*
X+1400000Y+1608340D01*
X+1400000Y+1576336D01*
X+1410668Y+1565668D01*
X+1432004Y+1565668D01*
X+1432004Y+1619008D01*
D70*
X+801100Y+958100D02*
X+978900Y+958100D01*
X+978900Y+2151900D01*
X+801100Y+2151900D01*
X+801100Y+958100D01*
D27*
X+922004Y+1469656D02*
X+857996Y+1469656D01*
X+857996Y+1522996D01*
X+868664Y+1533664D01*
X+879332Y+1533664D01*
X+890000Y+1522996D01*
X+890000Y+1469656D01*
X+890000Y+1522996D02*
X+900668Y+1533664D01*
X+922004Y+1533664D01*
X+868664Y+1565668D02*
X+857996Y+1576336D01*
X+857996Y+1608340D01*
X+868664Y+1619008D01*
X+879332Y+1619008D01*
X+890000Y+1608340D01*
X+900668Y+1619008D01*
X+911336Y+1619008D01*
X+922004Y+1608340D01*
X+922004Y+1576336D01*
X+911336Y+1565668D01*
X+890000Y+1587004D02*
X+890000Y+1608340D01*
D70*
X-98900Y+958100D02*
X+78900Y+958100D01*
X+78900Y+2151900D01*
X-98900Y+2151900D01*
X-98900Y+958100D01*
D27*
X+22004Y+1469656D02*
X-42004Y+1469656D01*
X-42004Y+1522996D01*
X-31336Y+1533664D01*
X-20668Y+1533664D01*
X-10000Y+1522996D01*
X-10000Y+1469656D01*
X-10000Y+1522996D02*
X+668Y+1533664D01*
X+22004Y+1533664D01*
X+668Y+1619008D02*
X+668Y+1555000D01*
X-42004Y+1597672D01*
X+22004Y+1597672D01*
D70*
X-994660Y+315840D02*
X-402840Y+315840D01*
X-402840Y+907660D01*
X-994660Y+907660D01*
X-994660Y+315840D01*
D28*
X-856568Y+552568D02*
X-856568Y+670932D01*
X-777659Y+670932D01*
X-738205Y+631477D01*
X-738205Y+592023D01*
X-777659Y+552568D01*
X-856568Y+552568D01*
X-659296Y+631477D02*
X-619841Y+670932D01*
X-619841Y+552568D01*
D70*
X+1069340Y+325840D02*
X+1661160Y+325840D01*
X+1661160Y+917660D01*
X+1069340Y+917660D01*
X+1069340Y+325840D01*
D28*
X+1207432Y+562568D02*
X+1207432Y+680932D01*
X+1286341Y+680932D01*
X+1325795Y+641477D01*
X+1325795Y+602023D01*
X+1286341Y+562568D01*
X+1207432Y+562568D01*
X+1384977Y+661205D02*
X+1404704Y+680932D01*
X+1463886Y+680932D01*
X+1483613Y+661205D01*
X+1483613Y+641477D01*
X+1463886Y+621750D01*
X+1404704Y+621750D01*
X+1384977Y+602023D01*
X+1384977Y+562568D01*
X+1483613Y+562568D01*
D70*
X+512840Y+357590D02*
X+1041160Y+357590D01*
X+1041160Y+885910D01*
X+512840Y+885910D01*
X+512840Y+357590D01*
D26*
X+741779Y+586528D02*
X+724168Y+568918D01*
X+671337Y+568918D01*
X+636116Y+604139D01*
X+636116Y+639360D01*
X+671337Y+674581D01*
X+724168Y+674581D01*
X+741779Y+656971D01*
X+812221Y+639360D02*
X+847442Y+674581D01*
X+847442Y+568918D01*
D70*
X-137160Y+357590D02*
X+391160Y+357590D01*
X+391160Y+885910D01*
X-137160Y+885910D01*
X-137160Y+357590D01*
D26*
X+91779Y+586528D02*
X+74168Y+568918D01*
X+21337Y+568918D01*
X-13884Y+604139D01*
X-13884Y+639360D01*
X+21337Y+674581D01*
X+74168Y+674581D01*
X+91779Y+656971D01*
X+144610Y+656971D02*
X+162221Y+674581D01*
X+215052Y+674581D01*
X+232663Y+656971D01*
X+232663Y+639360D01*
X+215052Y+621750D01*
X+162221Y+621750D01*
X+144610Y+604139D01*
X+144610Y+568918D01*
X+232663Y+568918D01*
D70*
X+2049840Y-730160D02*
X+3070160Y-730160D01*
X+3070160Y+790160D01*
X+2049840Y+790160D01*
X+2049840Y-730160D01*
D29*
X+2674024Y-426096D02*
X+2445976Y-426096D01*
X+2445976Y-274064D01*
X+2521992Y-198048D01*
X+2598008Y-198048D01*
X+2674024Y-274064D01*
X+2674024Y-426096D01*
X+2636016Y+106016D02*
X+2674024Y+68008D01*
X+2674024Y-46016D01*
X+2598008Y-122032D01*
X+2521992Y-122032D01*
X+2445976Y-46016D01*
X+2445976Y+68008D01*
X+2483984Y+106016D01*
X+2521992Y+258048D02*
X+2445976Y+334064D01*
X+2674024Y+334064D01*
M02*
